HIERARCHY
ROOT Hips
{
	OFFSET 0.00000 0.00000 0.00000
	CHANNELS 6 Xposition Yposition Zposition Zrotation Yrotation Xrotation 
	JOINT LHipJoint
	{
		OFFSET 0 0 0
		CHANNELS 3 Zrotation Yrotation Xrotation
		JOINT LeftUpLeg
		{
			OFFSET 1.27966 -1.91611 0.81506
			CHANNELS 3 Zrotation Yrotation Xrotation
			JOINT LeftLeg
			{
				OFFSET 2.49511 -6.85528 0.00000
				CHANNELS 3 Zrotation Yrotation Xrotation
				JOINT LeftFoot
				{
					OFFSET 2.67286 -7.34045 0.00000
					CHANNELS 3 Zrotation Yrotation Xrotation
					JOINT LeftToeBase
					{
						OFFSET 0.22740 -0.62477 2.32102
						CHANNELS 3 Zrotation Yrotation Xrotation
						End Site
						{
							OFFSET 0.00000 -0.00000 1.20480
						}
					}
				}
			}
		}
	}
	JOINT RHipJoint
	{
		OFFSET 0 0 0
		CHANNELS 3 Zrotation Yrotation Xrotation
		JOINT RightUpLeg
		{
			OFFSET -1.09666 -1.91611 0.81505
			CHANNELS 3 Zrotation Yrotation Xrotation
			JOINT RightLeg
			{
				OFFSET -2.51373 -6.90642 0.00000
				CHANNELS 3 Zrotation Yrotation Xrotation
				JOINT RightFoot
				{
					OFFSET -2.70173 -7.42295 0.00000
					CHANNELS 3 Zrotation Yrotation Xrotation
					JOINT RightToeBase
					{
						OFFSET -0.22214 -0.61032 2.18267
						CHANNELS 3 Zrotation Yrotation Xrotation
						End Site
						{
							OFFSET -0.00000 -0.00000 1.13683
						}
					}
				}
			}
		}
	}
	JOINT LowerBack
	{
		OFFSET 0 0 0
		CHANNELS 3 Zrotation Yrotation Xrotation
		JOINT Spine
		{
			OFFSET -0.00990 2.16804 -0.08389
			CHANNELS 3 Zrotation Yrotation Xrotation
			JOINT Spine1
			{
				OFFSET 0.06407 2.15456 0.07285
				CHANNELS 3 Zrotation Yrotation Xrotation
				JOINT Neck
				{
					OFFSET 0 0 0
					CHANNELS 3 Zrotation Yrotation Xrotation
					JOINT Neck1
					{
						OFFSET -0.16931 1.61602 0.24462
						CHANNELS 3 Zrotation Yrotation Xrotation
						JOINT Head
						{
							OFFSET 0.21556 1.63376 -0.33896
							CHANNELS 3 Zrotation Yrotation Xrotation
							End Site
							{
								OFFSET 0.08444 1.69244 -0.14900
							}
						}
					}
				}
				JOINT LeftShoulder
				{
					OFFSET 0 0 0
					CHANNELS 3 Zrotation Yrotation Xrotation
					JOINT LeftArm
					{
						OFFSET 2.89000 1.40150 -0.54392
						CHANNELS 3 Zrotation Yrotation Xrotation
						JOINT LeftForeArm
						{
							OFFSET 5.10755 -0.00000 0.00000
							CHANNELS 3 Zrotation Yrotation Xrotation
							JOINT LeftHand
							{
								OFFSET 3.36253 -0.00000 0.00000
								CHANNELS 3 Zrotation Yrotation Xrotation
								JOINT LeftFingerBase
								{
									OFFSET 0 0 0
									CHANNELS 3 Zrotation Yrotation Xrotation
									JOINT LeftHandIndex1
									{
										OFFSET 0.61909 -0.00000 0.00000
										CHANNELS 3 Zrotation Yrotation Xrotation
										End Site
										{
											OFFSET 0.49912 -0.00000 0.00000
										}
									}
								}
								JOINT LThumb
								{
									OFFSET 0 0 0
									CHANNELS 3 Zrotation Yrotation Xrotation
									End Site
									{
										OFFSET 0.50675 -0.00000 0.50675
									}
								}
							}
						}
					}
				}
				JOINT RightShoulder
				{
					OFFSET 0 0 0
					CHANNELS 3 Zrotation Yrotation Xrotation
					JOINT RightArm
					{
						OFFSET -2.65771 1.70968 -0.54312
						CHANNELS 3 Zrotation Yrotation Xrotation
						JOINT RightForeArm
						{
							OFFSET -5.27387 -0.00000 0.00000
							CHANNELS 3 Zrotation Yrotation Xrotation
							JOINT RightHand
							{
								OFFSET -3.40144 -0.00000 0.00000
								CHANNELS 3 Zrotation Yrotation Xrotation
								JOINT RightFingerBase
								{
									OFFSET 0 0 0
									CHANNELS 3 Zrotation Yrotation Xrotation
									JOINT RightHandIndex1
									{
										OFFSET -0.74282 -0.00000 0.00000
										CHANNELS 3 Zrotation Yrotation Xrotation
										End Site
										{
											OFFSET -0.59888 -0.00000 0.00000
										}
									}
								}
								JOINT RThumb
								{
									OFFSET 0 0 0
									CHANNELS 3 Zrotation Yrotation Xrotation
									End Site
									{
										OFFSET -0.60803 -0.00000 0.60803
									}
								}
							}
						}
					}
				}
			}
		}
	}
}
MOTION
Frames: 11
Frame Time: .0083333
0.5179 17.8863 1.1795 -0.3991 -16.3702 -0.0896 0.0000 0.0000 0.0000 -10.4872 -14.9574 -1.8255 2.5549 9.9371 28.7734 -1.0358 -20.6188 -3.7669 0.0004 0.1344 0.3694 0.0000 0.0000 0.0000 19.8330 7.0499 -14.0274 -3.8344 -11.9368 35.5087 -0.3776 13.3963 -13.5356 -0.6498 5.1563 -14.3549 -0.0961 0.4300 11.9683 3.8448 0.7208 2.3572 3.9752 0.3663 -4.2923 -19.9221 -10.0059 -8.7649 20.1491 -13.4703 8.9936 8.5169 -6.1644 7.0045 -0.0000 0.0000 0.0000 -86.6271 30.6759 28.3848 48.5901 -52.4108 -25.0525 -0.0000 -0.0000 38.6233 15.7289 26.8637 7.2525 -7.1250 0.0000 -0.0000 -15.8482 57.0246 -4.7507 -0.0000 0.0000 0.0000 76.0936 -7.1369 32.7990 -123.8530 55.1926 -88.8443 0.0000 0.0000 41.9994 -32.1197 0.2753 -0.1728 7.1250 -0.0000 -0.0000 -4.3618 -29.6414 -1.6380
0.5629 17.8865 1.1799 -0.1401 -18.6982 0.0783 0.0000 0.0000 0.0000 -10.8698 -14.6414 -1.2886 2.4837 9.8082 28.3578 -1.0394 -20.6193 -3.7130 0.0009 -0.1923 -0.5283 0.0000 0.0000 0.0000 19.3823 8.1280 -14.2215 -3.8363 -11.9394 35.5178 -0.3337 14.5205 -13.6604 -0.8628 5.9231 -16.5615 -0.5411 0.6248 11.9015 3.9540 0.9299 2.2322 4.3129 0.4781 -4.4101 -19.7089 -9.5770 -8.7606 19.6188 -12.8512 9.2546 8.3915 -5.8860 6.8922 -0.0000 -0.0000 0.0000 -87.0708 31.4565 28.8199 47.6517 -52.0033 -24.3109 -0.0000 -0.0000 38.7135 16.3385 26.1441 7.3602 -7.1250 0.0000 -0.0000 -14.8101 56.4508 -4.2227 -0.0000 -0.0000 0.0000 74.9066 -6.5281 33.2665 -125.3914 54.6932 -90.1037 0.0000 0.0000 41.7830 -31.5128 0.9924 -0.6084 7.1250 -0.0000 -0.0000 -3.8502 -28.8069 -1.5216
0.6099 17.8783 1.1824 0.0156 -20.7894 0.2457 0.0000 0.0000 0.0000 -11.0924 -14.2762 -0.8920 2.4218 9.6944 27.9925 -1.0707 -20.9157 -3.7680 0.2191 -3.0135 -8.3163 0.0000 0.0000 0.0000 19.0331 9.0734 -14.4324 -3.8445 -11.9506 35.5575 -0.3025 15.4953 -13.8808 -1.1129 6.7020 -18.8356 -0.8479 0.6999 11.8763 4.0222 0.9933 2.1891 4.5512 0.5144 -4.4528 -19.4336 -9.0912 -8.8783 19.4155 -12.1681 9.3394 8.3725 -5.5529 6.7608 -0.0000 0.0000 0.0000 -87.4024 32.1174 29.1992 46.9740 -51.6997 -23.7780 -0.0000 -0.0000 38.6718 16.2283 26.0192 7.2762 -7.1250 0.0000 -0.0000 -14.8553 56.3065 -4.1837 -0.0000 0.0000 0.0000 73.9521 -4.8317 33.6994 -126.1352 54.4401 -90.7098 0.0000 0.0000 41.7882 -30.7877 0.6838 -0.4074 7.1250 -0.0000 -0.0000 -3.2999 -29.1767 -1.2744
0.6522 17.8747 1.1892 0.0864 -22.5608 0.3718 0.0000 0.0000 0.0000 -11.2396 -14.0606 -0.4890 2.3685 9.5947 27.6741 -1.0673 -21.0478 -4.0449 0.1384 -2.3979 -6.6068 0.0000 0.0000 0.0000 18.8062 9.8527 -14.5587 -3.8552 -11.9652 35.6090 -0.3021 16.1906 -14.2575 -1.4427 7.5933 -21.4855 -1.0019 0.6386 11.7292 4.0238 0.8838 2.3269 4.6570 0.4558 -4.2196 -19.0239 -8.7505 -9.0417 19.2188 -11.6938 9.3595 8.2965 -5.3127 6.6565 0.0000 0.0000 0.0000 -87.6312 32.5215 29.4213 46.5672 -51.5136 -23.4592 -0.0000 -0.0000 38.6814 16.0190 26.2042 7.2252 -7.1250 0.0000 -0.0000 -15.1726 56.4436 -4.3268 0.0000 0.0000 0.0000 73.3400 -2.4371 33.8975 -126.5624 54.2912 -91.0570 0.0000 0.0000 42.1320 -29.9618 0.4826 -0.2782 7.1250 -0.0000 -0.0000 -2.6616 -29.4175 -1.0121
0.6876 17.8755 1.1936 0.1076 -24.1701 0.4747 0.0000 0.0000 0.0000 -11.3243 -13.6774 -0.1194 2.3195 9.5021 27.3789 -1.0143 -20.8311 -4.4315 0.3558 -3.8321 -10.6049 0.0000 0.0000 0.0000 18.6604 10.5468 -14.6549 -3.8720 -11.9882 35.6901 -0.3009 16.8300 -14.6032 -1.7461 8.3158 -23.6775 -1.1629 0.5377 11.6350 4.0913 0.7286 2.3636 4.8443 0.3781 -4.1180 -18.8861 -8.5298 -8.4352 18.7023 -11.4006 9.1347 8.1440 -5.2266 6.3738 0.0000 0.0000 0.0000 -87.8901 33.1423 29.7763 46.2358 -51.3597 -23.2000 -0.0000 -0.0000 38.6504 15.2779 26.3668 6.9169 -7.1250 0.0000 -0.0000 -16.0256 56.4491 -4.5808 0.0000 0.0000 0.0000 72.4970 -0.7704 34.1378 -127.4509 53.9733 -91.7770 0.0000 0.0000 42.5809 -29.3249 0.5693 -0.3198 7.1250 -0.0000 -0.0000 -2.1603 -29.3240 -0.8260
0.7233 17.8751 1.1904 0.0076 -25.8868 0.6739 0.0000 0.0000 0.0000 -11.2174 -12.9910 0.0606 2.2790 9.4246 27.1328 -1.0137 -20.6358 -4.1183 0.3364 -3.7275 -10.3112 0.0000 0.0000 0.0000 18.6206 11.2112 -14.9012 -3.8963 -12.0211 35.8065 -0.2934 17.5302 -14.9385 -1.9831 8.8308 -25.2674 -1.2445 0.5347 11.6599 4.1945 0.7191 2.3057 5.0031 0.3759 -4.1939 -18.2079 -8.0700 -8.5659 17.8845 -10.7517 9.4670 7.8279 -4.9235 6.2754 0.0000 -0.0000 0.0000 -87.9745 33.8198 30.4378 45.8649 -51.1852 -22.9107 -0.0000 -0.0000 38.7429 13.7075 26.6299 6.2392 -7.1250 0.0000 -0.0000 -17.7833 56.3816 -5.0755 0.0000 -0.0000 0.0000 71.0807 -0.2918 34.5254 -129.0792 53.3602 -93.0887 0.0000 0.0000 42.7513 -28.8551 0.6525 -0.3595 7.1250 -0.0000 -0.0000 -1.7905 -29.2330 -0.6884
0.7638 17.8749 1.1857 0.0973 -27.6435 0.8428 0.0000 0.0000 0.0000 -11.2850 -12.3045 0.0439 2.2515 9.3715 26.9644 -1.0972 -20.7489 -3.0660 0.1344 -2.3632 -6.5104 0.0000 0.0000 0.0000 18.3362 11.8057 -15.3123 -3.9281 -12.0641 35.9591 -0.2831 18.2562 -15.2755 -2.1854 9.2420 -26.5552 -1.4600 0.5565 11.6332 4.1821 0.7175 2.3432 5.1134 0.3753 -4.1420 -17.5647 -7.6753 -9.0918 17.4312 -10.1730 9.7248 7.6239 -4.6187 6.2730 -0.0000 -0.0000 0.0000 -87.8846 34.2002 31.2341 45.3380 -50.9330 -22.5009 -0.0000 -0.0000 38.6283 12.9683 26.7150 5.9105 -7.1250 0.0000 -0.0000 -18.5846 56.3122 -5.2836 -0.0000 -0.0000 0.0000 70.3318 1.3447 34.7663 -129.7891 53.0802 -93.6574 0.0000 0.0000 42.8428 -28.8731 0.0884 -0.0488 7.1250 -0.0000 -0.0000 -1.8177 -29.8767 -0.6710
0.8043 17.8755 1.1812 0.3447 -29.1989 0.9444 0.0000 0.0000 0.0000 -11.5045 -11.7401 -0.0499 2.2308 9.3311 26.8366 -1.1821 -20.9973 -2.1812 0.0336 -1.1824 -3.2509 0.0000 0.0000 0.0000 17.8756 12.2825 -15.7415 -3.9658 -12.1148 36.1392 -0.2954 18.8121 -15.7021 -2.4238 9.6980 -28.0043 -1.7911 0.5046 11.6049 4.1203 0.6030 2.3802 5.2548 0.3196 -4.0784 -16.8403 -7.3060 -9.6157 16.8886 -9.6395 10.0111 7.3695 -4.3386 6.2852 0.0000 -0.0000 0.0000 -87.7424 34.5482 32.1592 44.8615 -50.7005 -22.1315 -0.0000 -0.0000 37.8950 13.3558 26.7101 6.0912 -7.1250 0.0000 -0.0000 -18.1885 56.3858 -5.1984 0.0000 -0.0000 0.0000 69.4038 2.6225 35.0641 -130.7518 52.6878 -94.4250 0.0000 0.0000 42.7336 -28.7995 -0.4539 0.2495 7.1250 -0.0000 -0.0000 -1.7700 -30.4951 -0.6272
0.8404 17.8738 1.1810 0.3485 -30.7526 1.0801 0.0000 0.0000 0.0000 -11.5403 -10.9744 -0.0016 2.2084 9.2873 26.6981 -1.1913 -21.2701 -2.5862 0.0907 -1.9421 -5.3456 0.0000 0.0000 0.0000 17.7118 12.6961 -16.0737 -4.0024 -12.1636 36.3132 -0.3440 19.1415 -16.2756 -2.7661 10.3063 -29.9746 -1.8549 0.5231 11.5423 4.1267 0.6162 2.4295 5.2954 0.3235 -3.9942 -16.5405 -6.9694 -9.5053 16.6666 -9.1981 9.9770 7.2972 -4.1323 6.1486 -0.0000 -0.0000 0.0000 -87.3992 34.8560 33.4198 44.3100 -50.4259 -21.7056 -0.0000 -0.0000 37.3983 13.5694 26.8106 6.2130 -7.1250 0.0000 -0.0000 -18.0323 56.5252 -5.2132 -0.0000 -0.0000 0.0000 68.4668 3.8562 35.0626 -131.7251 52.2756 -95.1970 0.0000 0.0000 42.5513 -28.5194 -0.9261 0.5032 7.1250 -0.0000 -0.0000 -1.5543 -31.0316 -0.5308
0.8760 17.8697 1.1876 0.3642 -32.2241 1.1420 0.0000 0.0000 0.0000 -11.6888 -10.1176 0.2084 2.1791 9.2296 26.5163 -1.1066 -21.4408 -4.1591 0.4776 -4.4321 -12.2955 0.0000 0.0000 0.0000 17.5533 12.8635 -16.3855 -4.0323 -12.2032 36.4547 -0.3941 19.3447 -16.7736 -2.9437 10.6034 -30.9536 -1.9194 0.5383 11.4861 4.1878 0.6273 2.4748 5.3953 0.3265 -3.9181 -16.6088 -6.5649 -9.2521 16.6937 -8.6615 9.9064 7.3857 -3.8863 5.9910 0.0000 -0.0000 0.0000 -87.1534 35.1781 34.6753 43.6256 -50.0771 -21.1794 -0.0000 -0.0000 37.5285 12.8898 26.8562 5.9023 -7.1250 0.0000 -0.0000 -18.7504 56.4300 -5.3872 0.0000 -0.0000 0.0000 67.7269 5.5563 34.8585 -132.3226 52.0147 -95.6688 0.0000 0.0000 42.4917 -27.9378 -1.2572 0.6666 7.1250 -0.0000 -0.0000 -1.0925 -31.4017 -0.3633
0.9116 17.8779 1.1933 0.8067 -33.4793 1.0178 0.0000 0.0000 0.0000 -12.2705 -9.5744 0.3027 2.1461 9.1640 26.3098 -1.0285 -21.4148 -5.1647 0.8844 -5.9949 -16.7695 0.0000 0.0000 0.0000 16.9278 12.7566 -16.7409 -4.0579 -12.2370 36.5756 -0.4623 19.1384 -17.1713 -2.7252 10.2364 -29.7456 -2.3706 0.4715 11.4523 4.1426 0.4817 2.4951 5.6281 0.2568 -3.8650 -16.2447 -6.1047 -9.4521 16.4201 -8.0267 10.0584 7.2988 -3.5714 5.9310 -0.0000 0.0000 0.0000 -86.9735 35.4854 35.6784 43.0103 -49.7556 -20.7086 -0.0000 -0.0000 37.9424 11.6995 26.4977 5.2786 -7.1250 0.0000 -0.0000 -19.7297 55.8517 -5.4035 -0.0000 0.0000 0.0000 67.0789 7.3309 34.6984 -132.8335 51.7868 -96.0708 0.0000 0.0000 42.4026 -26.9604 -1.3647 0.6941 7.1250 -0.0000 -0.0000 -0.3101 -31.5108 -0.1023
